<?xml version="1.0" encoding="UTF-8" standalone="no"?>
<!-- Generator: Adobe Illustrator 27.5.0, SVG Export Plug-In . SVG Version: 6.00 Build 0)  -->

<svg
   version="1.1"
   x="0px"
   y="0px"
   viewBox="0 0 350 350"
   xml:space="preserve"
   id="svg12"
   sodipodi:docname="location.svg"
   width="350"
   height="350"
   inkscape:version="1.4.2 (f4327f4, 2025-05-13)"
   xmlns:inkscape="http://www.inkscape.org/namespaces/inkscape"
   xmlns:sodipodi="http://sodipodi.sourceforge.net/DTD/sodipodi-0.dtd"
   xmlns="http://www.w3.org/2000/svg"
   xmlns:svg="http://www.w3.org/2000/svg"><defs
   id="defs12" /><sodipodi:namedview
   id="namedview12"
   pagecolor="#ffffff"
   bordercolor="#000000"
   borderopacity="0.25"
   inkscape:showpageshadow="2"
   inkscape:pageopacity="0.0"
   inkscape:pagecheckerboard="0"
   inkscape:deskcolor="#d1d1d1"
   showgrid="false"
   inkscape:zoom="0.41046922"
   inkscape:cx="227.78809"
   inkscape:cy="478.72043"
   inkscape:window-width="1257"
   inkscape:window-height="1101"
   inkscape:window-x="-8"
   inkscape:window-y="0"
   inkscape:window-maximized="0"
   inkscape:current-layer="svg12" />

<path
   style="fill:#1f283d;stroke-width:0.943938"
   d="m 175,41.503163 c -56.6363,0 -102.55041,45.914111 -102.55041,102.550397 0,69.30205 56.59194,130.86666 85.69545,157.94542 9.4356,8.77957 24.09402,8.64175 33.38615,-0.28885 29.00534,-27.87828 86.01922,-91.13536 86.01922,-157.65657 C 277.55041,87.416324 231.63725,41.503163 175,41.503163 Z m 0,145.575107 c -23.76176,0 -43.02471,-19.26389 -43.02471,-43.02471 0,-23.76176 19.26295,-43.0247 43.02471,-43.0247 23.76176,0 43.02471,19.26388 43.02471,43.0247 9.4e-4,23.76082 -19.26295,43.02471 -43.02471,43.02471 z"
   id="path10" /><path
   style="fill:#1f283d;stroke-width:0.940054"
   d="m 212.60223,716.86513 c -10.33214,-12.30343 -22.82734,-22.74838 -36.88868,-30.74824 -3.87584,-2.19691 -8.16907,2.0841 -5.99378,5.98251 3.66151,6.55782 7.0081,13.76803 10.005,21.56485 1.69021,4.40509 3.25635,8.93521 4.67583,13.59976 0.72102,2.36612 3.17738,3.75176 5.58862,3.17739 7.05323,-1.69022 13.97109,-3.69536 20.58531,-6.08403 3.09842,-1.12619 4.14564,-4.95691 2.0277,-7.49224 z m 15.12078,22.12888 c -1.14969,-2.10666 -3.69536,-3.00817 -5.91482,-2.10666 -7.76297,3.13226 -17.01311,6.17428 -27.96474,8.82241 -2.43381,0.58565 -4.01122,2.96305 -3.53743,5.41942 2.51277,12.97933 4.0789,26.5791 4.64199,40.51634 0.0902,2.35484 2.03898,4.20299 4.38253,4.20299 h 39.89685 c 2.58045,0 4.63071,-2.20819 4.39382,-4.76608 -1.72406,-18.71554 -7.29012,-36.35943 -15.8982,-52.08842 z m -52.61767,72.25635 h -53.78898 c -2.42722,0 -4.39381,1.96753 -4.39381,4.39381 v 32.3548 c 0,2.58515 2.06248,4.70779 4.64669,4.77077 18.29534,0.44465 34.29036,1.88951 48.25111,3.98302 2.53909,0.38072 4.90897,-1.31232 5.39404,-3.83355 2.28057,-11.84938 3.72543,-24.27878 4.2951,-37.04284 0.11281,-2.51747 -1.8848,-4.62601 -4.40415,-4.62601 z m -58.18279,115.96982 c 0,6.20624 5.57358,10.92719 11.69522,9.90535 l 0.0677,-0.0113 c 1.72406,-0.24817 3.35787,-0.90151 4.74351,-1.94873 12.49521,-9.39679 23.74014,-25.99345 31.91955,-47.265 1.22113,-3.16986 2.36988,-6.42151 3.43684,-9.74178 0.90528,-2.81641 -0.97201,-5.77194 -3.90216,-6.1818 -14.95815,-2.09162 -29.77435,-3.06552 -43.06954,-3.41898 -2.68385,-0.0714 -4.8911,2.08974 -4.8911,4.77548 z m -63.84004,-39.3206 c 8.17941,21.27249 19.42434,37.86821 31.91955,47.265 1.38564,1.04816 3.03073,1.7015 4.74351,1.94873 l 0.0677,0.0113 c 6.12727,1.02184 11.7065,-3.70287 11.7065,-9.91569 v -53.87828 c 0,-2.68574 -2.20725,-4.84692 -4.89111,-4.77548 -13.29519,0.3544 -28.11797,1.3283 -43.07611,3.4265 -2.93109,0.41174 -4.8065,3.36915 -3.89841,6.1865 1.06978,3.31839 2.21571,6.56346 3.42838,9.73144 z M 97.11466,811.25036 H 43.32568 c -2.51276,0 -4.50662,2.09538 -4.39381,4.60815 0.55933,12.76876 2.00231,25.20098 4.29135,37.05412 0.48695,2.52311 2.85306,4.22179 5.39403,3.84107 13.96169,-2.09351 29.9586,-3.53931 48.25582,-3.98396 2.58515,-0.063 4.64669,-2.18468 4.64669,-4.77077 v -32.3548 c 0,-2.42252 -1.9713,-4.39381 -4.4051,-4.39381 z m -0.16921,-56.92218 c -18.35456,-0.43901 -34.39847,-1.89327 -48.39212,-3.98865 -2.51277,-0.38354 -4.83376,1.29539 -5.31789,3.77432 -2.29844,11.87571 -3.74048,24.33707 -4.30357,37.12463 -0.11281,2.51276 1.88199,4.60815 4.39381,4.60815 h 53.78898 c 2.4338,0 4.4051,-1.9713 4.4051,-4.4051 v -32.4159 c 0,-2.54472 -2.0277,-4.62977 -4.57431,-4.69745 z m -7.12091,-84.35579 -0.079,0.0113 c -1.71278,0.24818 -3.34659,0.90152 -4.73223,1.94874 -12.50649,9.39678 -23.75142,25.99344 -31.93083,47.265 -1.22771,3.19994 -2.38868,6.46757 -3.4594,9.81322 -0.89023,2.77129 0.95791,5.67888 3.842,6.09532 15.01925,2.10666 29.89185,3.08714 43.23217,3.43684 2.64813,0.0677 4.82248,-2.06154 4.82248,-4.70967 v -53.73258 c 0,-6.24102 -5.53223,-11.01838 -11.69522,-10.12815 z m 85.38233,84.1424 c -0.48413,-2.49021 -2.81641,-4.15786 -5.31789,-3.77432 -13.99365,2.09538 -30.0385,3.5487 -48.39213,3.98865 -2.5466,0.0677 -4.5743,2.15179 -4.5743,4.69839 v 32.4159 c 0,2.4338 1.97129,4.4051 4.40509,4.4051 h 53.7777 c 2.52405,0 4.5179,-2.10667 4.40509,-4.63071 -0.57437,-12.7885 -2.01641,-25.23952 -4.30356,-37.10301 z m -6.3999,-25.09194 c -1.07072,-3.34659 -2.23075,-6.6255 -3.4594,-9.8245 -8.17941,-21.2725 -19.42434,-37.86822 -31.91955,-47.265 -1.38564,-1.04816 -3.01945,-1.7015 -4.74351,-1.94874 l -0.0677,-0.0113 c -6.11788,-1.0256 -11.69522,3.69536 -11.69522,9.90348 V 733.835 c 0,2.64813 2.17434,4.77735 4.82248,4.70967 13.32903,-0.3497 28.21291,-1.32924 43.22088,-3.43684 2.88409,-0.4061 4.73224,-3.31369 3.842,-6.08498 z M 24.599791,745.70882 c -10.951635,-2.64813 -20.2017708,-5.69015 -27.9647398,-8.82241 -2.219469,-0.90151 -4.766077,0 -5.914823,2.10666 -8.6080792,15.74027 -14.1741422,33.37288 -15.8982012,52.08748 -0.236894,2.55789 1.814305,4.76608 4.382534,4.76608 h 39.896851 c 2.354837,0 4.292289,-1.84815 4.393815,-4.20299 0.563093,-13.93724 2.129223,-27.53701 4.64199,-40.51635 0.47379,-2.45448 -1.10362,-4.83188 -3.537426,-5.41847 z M 42.75131,686.10655 c -14.072623,7.98858 -26.579107,18.44387 -36.9112458,30.75952 -2.129223,2.52405 -1.093283,6.36605 2.016417,7.49224 6.6142228,2.38867 13.5208028,4.39381 20.5853158,6.08403 2.41124,0.57437 4.8676,-0.81127 5.58862,-3.17739 1.419483,-4.66455 2.985623,-9.19373 4.675833,-13.59976 3.00818,-7.79682 6.35477,-15.00797 10.01629,-21.56485 2.16306,-3.87585 -2.11795,-8.1907 -5.97123,-5.99379 z m 5.97123,228.89104 c -3.66152,-6.56816 -7.00811,-13.76804 -10.01629,-21.56485 -1.68645,-4.37595 -3.24036,-8.89197 -4.656093,-13.52174 -0.73512,-2.40278 -3.22721,-3.8091 -5.67135,-3.22627 -7.003403,1.66954 -13.86016,3.65963 -20.4189198,6.02481 -3.152943,1.13747 -4.207684,5.04245 -2.050259,7.60786 10.3311988,12.27993 22.7981988,22.69856 36.8304018,30.67398 3.86456,2.18562 8.14557,-2.11794 5.98251,-5.99379 z M 23.495227,815.4524 c -0.101526,-2.35483 -2.038978,-4.20298 -4.393815,-4.20298 h -39.896851 c -2.58515,0 -4.617548,2.22511 -4.379714,4.79898 1.72406,18.69674 7.276021,36.29456 15.8699992,52.00757 1.168488,2.1358 3.745177,3.04484 6.003188,2.1358 7.732888,-3.11534 16.9360218,-6.13949 27.8368928,-8.7754 2.46764,-0.59694 4.06856,-3.01476 3.58725,-5.50778 -2.508067,-12.96241 -4.061037,-26.5368 -4.62695,-40.45619 z M 239.22645,811.25036 H 199.3296 c -2.34355,0 -4.29229,1.84815 -4.38253,4.20298 -0.56591,13.91845 -2.12734,27.50224 -4.62789,40.45807 -0.48131,2.49208 1.11961,4.90896 3.58631,5.5059 10.89523,2.63591 20.10494,5.66006 27.83971,8.7754 2.25801,0.90904 4.8347,0 6.00225,-2.1358 8.5921,-15.71019 14.14312,-33.30331 15.86906,-51.99629 0.23783,-2.58045 -1.79927,-4.81026 -4.39006,-4.81026 z m -59.50168,82.18144 c -2.9969,7.79681 -6.34349,14.99669 -10.005,21.56485 -2.16307,3.87585 2.11794,8.18035 5.97122,5.99379 14.03126,-7.97542 26.4992,-18.39311 36.82946,-30.67304 2.15836,-2.56541 1.10268,-6.47133 -2.0512,-7.60786 -6.56252,-2.36518 -13.41834,-4.35527 -20.41704,-6.02481 -2.44415,-0.58283 -4.93717,0.82255 -5.67229,3.22627 -1.41479,4.62977 -2.9687,9.14485 -4.65515,13.5208 z"
   id="path8" /><path
   style="fill:#1f283d;stroke-width:0.949354"
   d="m -44.208423,505.31744 c -19.34594,-17.94849 -58.136557,-53.217 -93.302537,-80.82707 -2.23193,-1.75251 -2.23763,-5.12462 -0.009,-6.87807 35.26187,-27.69457 73.985077,-62.89093 93.308227,-80.8138 2.66009,-2.46737 6.9882,-0.81644 7.33187,2.79585 3.91513,41.22287 3.91513,121.70248 0,162.92724 -0.34272,3.6123 -4.67178,5.26322 -7.33187,2.79585 z m -5.81954,-175.05334 c -24.02911,22.29369 -78.621717,71.82625 -118.417707,99.48664 -1.50377,1.04524 -3.49267,1.04524 -4.99645,0 -39.79503,-27.66039 -94.38861,-77.19295 -118.41771,-99.48664 -2.69522,-2.5006 -1.29397,-7.01193 2.3449,-7.53693 24.38607,-3.51925 68.18453,-5.71416 118.57056,-5.71416 50.38603,0 94.184487,2.19491 118.570557,5.71416 3.63982,0.525 5.04107,5.03633 2.34585,7.53693 z M -305.01124,502.52254 c -3.91513,-41.22476 -3.91513,-121.70437 0,-162.92724 0.34272,-3.61134 4.67178,-5.26322 7.33187,-2.79585 19.32315,17.92287 58.04827,53.12018 93.31014,80.81569 2.23193,1.75346 2.22623,5.12557 -0.01,6.87808 -35.16883,27.61007 -73.9585,62.87668 -93.30444,80.82517 -2.66009,2.46737 -6.98915,0.8155 -7.33186,-2.79585 z m 13.14761,9.33405 c 19.84625,-18.41652 60.54793,-55.4233 96.4639,-83.26881 1.55314,-1.20473 3.71862,-1.23131 5.29644,-0.0589 5.8072,4.31482 11.42263,8.3116 16.72573,11.85933 v 0 c 1.47245,0.98448 3.39299,0.98448 4.86544,0 v 0 c 5.30404,-3.54868 10.92042,-7.54641 16.72857,-11.86123 1.57783,-1.17245 3.7433,-1.14492 5.2974,0.0589 35.91217,27.84551 76.613837,64.85324 96.460087,83.27071 2.69522,2.5006 1.29302,7.01099 -2.34681,7.53598 -24.38606,3.5202 -68.185467,5.71416 -118.572447,5.71416 -50.38982,0 -94.18829,-2.19396 -118.5734,-5.71321 -3.63698,-0.52594 -5.03918,-5.03538 -2.34491,-7.53693 z"
   id="path4" /><path
   style="fill:#1f283d"
   d="m 274.19445,580.64091 v 46.534 c 0,24.344 -19.628,44.279 -43.971,44.334 -0.153,0 -0.305,0 -0.458,0 -16.854,0 -33.216,-2.115 -48.83601,-6.095 -69.662,-17.75 -124.497997,-72.585 -142.247996,-142.248 -3.98,-15.62 -6.095,-31.982 -6.095,-48.836 0,-0.153 0,-0.305 10e-4,-0.458 0.055,-24.34301 19.991,-43.97101 44.333997,-43.97101 h 46.533999 c 11.463,0 20.756,9.293 20.756,20.756 v 51.75301 c 0,11.463 -9.293,20.756 -20.756,20.756 h -15.639 c 13.322,33.252 39.862,59.792 73.114,73.114 v -15.639 c 0,-11.463 9.293,-20.756 20.75601,-20.756 h 51.753 c 11.462,0 20.755,9.293 20.755,20.756 z"
   id="path2" /><g
   id="Objects">
	
	
	
	
	
	
</g>
</svg>
