<?xml version="1.0" encoding="UTF-8" standalone="no"?>
<!-- Generator: Adobe Illustrator 27.5.0, SVG Export Plug-In . SVG Version: 6.00 Build 0)  -->

<svg
   version="1.1"
   x="0px"
   y="0px"
   viewBox="0 0 350 350"
   xml:space="preserve"
   id="svg12"
   sodipodi:docname="mail.svg"
   width="350"
   height="350"
   inkscape:version="1.4.2 (f4327f4, 2025-05-13)"
   xmlns:inkscape="http://www.inkscape.org/namespaces/inkscape"
   xmlns:sodipodi="http://sodipodi.sourceforge.net/DTD/sodipodi-0.dtd"
   xmlns="http://www.w3.org/2000/svg"
   xmlns:svg="http://www.w3.org/2000/svg"><defs
   id="defs12" /><sodipodi:namedview
   id="namedview12"
   pagecolor="#ffffff"
   bordercolor="#000000"
   borderopacity="0.25"
   inkscape:showpageshadow="2"
   inkscape:pageopacity="0.0"
   inkscape:pagecheckerboard="0"
   inkscape:deskcolor="#d1d1d1"
   showgrid="false"
   inkscape:zoom="0.41046922"
   inkscape:cx="49.942844"
   inkscape:cy="478.72043"
   inkscape:window-width="1257"
   inkscape:window-height="1101"
   inkscape:window-x="-8"
   inkscape:window-y="0"
   inkscape:window-maximized="0"
   inkscape:current-layer="svg12" />

<path
   style="fill:#1f283d"
   d="m 1684.818,887.823 c -60,0 -108.641,48.641 -108.641,108.641 0,73.418 59.953,138.639 90.785,167.326 9.996,9.301 25.525,9.155 35.369,-0.306 30.728,-29.534 91.128,-96.548 91.128,-167.02 0,-60.001 -48.64,-108.641 -108.641,-108.641 z m 0,154.221 c -25.173,0 -45.58,-20.408 -45.58,-45.58 0,-25.173 20.407,-45.58 45.58,-45.58 25.173,0 45.58,20.408 45.58,45.58 10e-4,25.172 -20.407,45.58 -45.58,45.58 z"
   id="path10" /><path
   style="fill:#1f283d"
   d="m 625.157,934.625 c -10.991,-13.088 -24.283,-24.199 -39.241,-32.709 -4.123,-2.337 -8.69,2.217 -6.376,6.364 3.895,6.976 7.455,14.646 10.643,22.94 1.798,4.686 3.464,9.505 4.974,14.467 0.767,2.517 3.38,3.991 5.945,3.38 7.503,-1.798 14.862,-3.931 21.898,-6.472 3.296,-1.198 4.41,-5.273 2.157,-7.97 z m 16.085,23.54 c -1.223,-2.241 -3.931,-3.2 -6.292,-2.241 -8.258,3.332 -18.098,6.568 -29.748,9.385 -2.589,0.623 -4.267,3.152 -3.763,5.765 2.673,13.807 4.339,28.274 4.938,43.1 0.096,2.505 2.169,4.471 4.662,4.471 h 42.441 c 2.745,0 4.926,-2.349 4.674,-5.07 -1.834,-19.909 -7.755,-38.678 -16.912,-55.41 z m -55.973,76.864 H 528.05 c -2.582,0 -4.674,2.093 -4.674,4.674 v 34.418 c 0,2.75 2.194,5.008 4.943,5.075 19.462,0.473 36.477,2.01 51.328,4.237 2.701,0.405 5.222,-1.396 5.738,-4.078 2.426,-12.605 3.963,-25.827 4.569,-39.405 0.12,-2.678 -2.005,-4.921 -4.685,-4.921 z m -61.893,123.365 c 0,6.602 5.929,11.624 12.441,10.537 l 0.072,-0.012 c 1.834,-0.264 3.572,-0.959 5.046,-2.073 13.292,-9.996 25.254,-27.651 33.955,-50.279 1.299,-3.372 2.521,-6.831 3.656,-10.363 0.963,-2.996 -1.034,-6.14 -4.151,-6.576 -15.912,-2.225 -31.673,-3.261 -45.816,-3.637 -2.855,-0.076 -5.203,2.223 -5.203,5.08 z m -67.911,-41.828 c 8.701,22.629 20.663,40.283 33.955,50.279 1.474,1.115 3.224,1.81 5.046,2.073 l 0.072,0.012 c 6.518,1.087 12.453,-3.939 12.453,-10.548 v -57.314 c 0,-2.857 -2.348,-5.156 -5.203,-5.08 -14.143,0.377 -29.911,1.413 -45.823,3.645 -3.118,0.438 -5.113,3.584 -4.147,6.581 1.138,3.53 2.357,6.982 3.647,10.352 z m 46.84,-81.537 h -57.219 c -2.673,0 -4.794,2.229 -4.674,4.902 0.595,13.583 2.13,26.808 4.565,39.417 0.518,2.684 3.035,4.491 5.738,4.086 14.852,-2.227 31.869,-3.765 51.333,-4.238 2.75,-0.067 4.943,-2.324 4.943,-5.075 v -34.418 c 0,-2.577 -2.097,-4.674 -4.686,-4.674 z m -0.18,-60.552 c -19.525,-0.467 -36.592,-2.014 -51.478,-4.243 -2.673,-0.408 -5.142,1.378 -5.657,4.015 -2.445,12.633 -3.979,25.889 -4.578,39.492 -0.12,2.673 2.002,4.902 4.674,4.902 h 57.219 c 2.589,0 4.686,-2.097 4.686,-4.686 v -34.483 c 0,-2.707 -2.157,-4.925 -4.866,-4.997 z m -7.575,-89.735 -0.084,0.012 c -1.822,0.264 -3.56,0.959 -5.034,2.073 -13.304,9.996 -25.266,27.651 -33.967,50.279 -1.306,3.404 -2.541,6.88 -3.68,10.439 -0.947,2.948 1.019,6.041 4.087,6.484 15.977,2.241 31.798,3.284 45.989,3.656 2.817,0.072 5.13,-2.193 5.13,-5.01 v -57.159 c 0,-6.639 -5.885,-11.721 -12.441,-10.774 z m 90.827,89.508 c -0.515,-2.649 -2.996,-4.423 -5.657,-4.015 -14.886,2.229 -31.954,3.775 -51.478,4.243 -2.709,0.072 -4.866,2.289 -4.866,4.998 v 34.483 c 0,2.589 2.097,4.686 4.686,4.686 h 57.207 c 2.685,0 4.806,-2.241 4.686,-4.926 -0.611,-13.604 -2.145,-26.849 -4.578,-39.469 z m -6.808,-26.692 c -1.139,-3.56 -2.373,-7.048 -3.68,-10.451 -8.701,-22.629 -20.663,-40.283 -33.955,-50.279 -1.474,-1.115 -3.212,-1.81 -5.046,-2.073 l -0.072,-0.012 c -6.508,-1.091 -12.441,3.931 -12.441,10.535 v 57.399 c 0,2.817 2.313,5.082 5.13,5.01 14.179,-0.372 30.012,-1.414 45.977,-3.656 3.068,-0.432 5.034,-3.525 4.087,-6.473 z m -153.403,17.75 c -11.65,-2.817 -21.49,-6.053 -29.748,-9.385 -2.361,-0.959 -5.07,0 -6.292,2.241 -9.157,16.744 -15.078,35.501 -16.912,55.409 -0.252,2.721 1.93,5.07 4.662,5.07 h 42.441 c 2.505,0 4.566,-1.966 4.674,-4.471 0.599,-14.826 2.265,-29.293 4.938,-43.1 0.504,-2.611 -1.174,-5.14 -3.763,-5.764 z m 19.309,-63.403 c -14.97,8.498 -28.274,19.62 -39.265,32.721 -2.265,2.685 -1.163,6.772 2.145,7.97 7.036,2.541 14.383,4.674 21.898,6.472 2.565,0.611 5.178,-0.863 5.945,-3.38 1.51,-4.962 3.176,-9.78 4.974,-14.467 3.2,-8.294 6.76,-15.965 10.655,-22.94 2.301,-4.123 -2.253,-8.713 -6.352,-6.376 z m 6.352,243.487 c -3.895,-6.987 -7.455,-14.646 -10.655,-22.94 -1.794,-4.655 -3.447,-9.459 -4.953,-14.384 -0.782,-2.556 -3.433,-4.052 -6.033,-3.432 -7.45,1.776 -14.744,3.893 -21.721,6.409 -3.354,1.21 -4.476,5.364 -2.181,8.093 10.99,13.063 24.252,24.146 39.179,32.63 4.111,2.325 8.665,-2.253 6.364,-6.376 z m -26.836,-105.893 c -0.108,-2.505 -2.169,-4.471 -4.674,-4.471 h -42.441 c -2.75,0 -4.912,2.367 -4.659,5.105 1.834,19.889 7.74,38.609 16.882,55.324 1.243,2.272 3.984,3.239 6.386,2.272 8.226,-3.314 18.016,-6.531 29.612,-9.335 2.625,-0.635 4.328,-3.207 3.816,-5.859 -2.668,-13.789 -4.32,-28.229 -4.922,-43.036 z m 229.488,-4.47 h -42.441 c -2.493,0 -4.566,1.966 -4.662,4.471 -0.602,14.806 -2.263,29.256 -4.923,43.038 -0.512,2.651 1.191,5.222 3.815,5.857 11.59,2.804 21.387,6.021 29.615,9.335 2.402,0.967 5.143,0 6.385,-2.272 9.14,-16.712 15.045,-35.427 16.881,-55.312 0.253,-2.745 -1.914,-5.117 -4.67,-5.117 z m -63.296,87.422 c -3.188,8.294 -6.748,15.953 -10.643,22.94 -2.301,4.123 2.253,8.702 6.352,6.376 14.926,-8.484 28.189,-19.566 39.178,-32.629 2.296,-2.729 1.173,-6.884 -2.182,-8.093 -6.981,-2.516 -14.274,-4.633 -21.719,-6.409 -2.6,-0.62 -5.252,0.875 -6.034,3.432 -1.505,4.925 -3.158,9.728 -4.952,14.383 z"
   id="path8" /><path
   style="fill:#1f283d;stroke-width:0.949354"
   d="m 301.73713,259.25757 c -19.34594,-17.94849 -58.13656,-53.217 -93.30254,-80.82707 -2.23193,-1.75251 -2.23763,-5.12462 -0.009,-6.87807 35.26187,-27.69457 73.98508,-62.89093 93.30823,-80.813793 2.66009,-2.467372 6.9882,-0.816445 7.33187,2.795851 3.91513,41.222862 3.91513,121.702472 0,162.927232 -0.34272,3.6123 -4.67178,5.26322 -7.33187,2.79585 z M 295.91759,84.204231 c -24.02911,22.293689 -78.62172,71.826249 -118.41771,99.486639 -1.50377,1.04524 -3.49267,1.04524 -4.99645,0 C 132.7084,156.03048 78.114829,106.49792 54.085722,84.204231 51.390506,81.703632 52.791753,77.1923 56.430627,76.667307 80.816691,73.148051 124.61515,70.953144 175.00118,70.953144 c 50.38603,0 94.18449,2.194907 118.57056,5.714163 3.63982,0.524993 5.04107,5.036325 2.34585,7.536924 z M 40.934318,256.46267 c -3.915138,-41.22476 -3.915138,-121.70437 0,-162.927233 0.342716,-3.611346 4.671772,-5.263223 7.331863,-2.795851 19.323157,17.922864 58.048269,53.120174 93.310139,80.815684 2.23193,1.75346 2.22623,5.12557 -0.01,6.87808 -35.16883,27.61007 -73.958495,62.87668 -93.304437,80.82517 -2.66009,2.46737 -6.989146,0.8155 -7.331863,-2.79585 z m 13.147607,9.33405 c 19.846251,-18.41652 60.547925,-55.4233 96.463895,-83.26881 1.55314,-1.20473 3.71862,-1.23131 5.29644,-0.0589 5.8072,4.31482 11.42263,8.3116 16.72573,11.85933 v 0 c 1.47245,0.98448 3.39299,0.98448 4.86544,0 v 0 c 5.30404,-3.54868 10.92042,-7.54641 16.72857,-11.86123 1.57783,-1.17245 3.7433,-1.14492 5.2974,0.0589 35.91217,27.84551 76.61384,64.85324 96.46009,83.27071 2.69522,2.5006 1.29302,7.01099 -2.34681,7.53598 -24.38606,3.5202 -68.18547,5.71416 -118.57245,5.71416 -50.38982,0 -94.188286,-2.19396 -118.5734,-5.71321 -3.636976,-0.52594 -5.039172,-5.03538 -2.344905,-7.53693 z"
   id="path4" /><path
   style="fill:#1f283d"
   d="m 274.19445,580.64091 v 46.534 c 0,24.344 -19.628,44.279 -43.971,44.334 -0.153,0 -0.305,0 -0.458,0 -16.854,0 -33.216,-2.115 -48.83601,-6.095 -69.662,-17.75 -124.497997,-72.585 -142.247996,-142.248 -3.98,-15.62 -6.095,-31.982 -6.095,-48.836 0,-0.153 0,-0.305 10e-4,-0.458 0.055,-24.34301 19.991,-43.97101 44.333997,-43.97101 h 46.533999 c 11.463,0 20.756,9.293 20.756,20.756 v 51.75301 c 0,11.463 -9.293,20.756 -20.756,20.756 h -15.639 c 13.322,33.252 39.862,59.792 73.114,73.114 v -15.639 c 0,-11.463 9.293,-20.756 20.75601,-20.756 h 51.753 c 11.462,0 20.755,9.293 20.755,20.756 z"
   id="path2" /><g
   id="Objects">
	
	
	
	
	
	
</g>
</svg>
