<?xml version="1.0" encoding="UTF-8" standalone="no"?>
<svg
   version="1.1"
   viewBox="0 0 400 400"
   id="svg67"
   sodipodi:docname="sunny2.svg"
   width="400"
   height="400"
   inkscape:version="1.4.2 (f4327f4, 2025-05-13)"
   xmlns:inkscape="http://www.inkscape.org/namespaces/inkscape"
   xmlns:sodipodi="http://sodipodi.sourceforge.net/DTD/sodipodi-0.dtd"
   xmlns="http://www.w3.org/2000/svg"
   xmlns:svg="http://www.w3.org/2000/svg">
  <defs
     id="defs67" />
  <sodipodi:namedview
     id="namedview67"
     pagecolor="#ffffff"
     bordercolor="#000000"
     borderopacity="0.25"
     inkscape:showpageshadow="2"
     inkscape:pageopacity="0.0"
     inkscape:pagecheckerboard="0"
     inkscape:deskcolor="#d1d1d1"
     showgrid="false"
     inkscape:zoom="0.77363636"
     inkscape:cx="19.388954"
     inkscape:cy="296.651"
     inkscape:window-width="1920"
     inkscape:window-height="1111"
     inkscape:window-x="-9"
     inkscape:window-y="-9"
     inkscape:window-maximized="1"
     inkscape:current-layer="g67" />
  <!-- Generator: Adobe Illustrator 28.7.7, SVG Export Plug-In . SVG Version: 1.2.0 Build 194)  -->
  <g
     id="g67">
    <path
       d="m 1005.385,556.181 c -8.052,72.615 -69.636,129.088 -144.405,129.064 -80.261,-0.026 -145.208,-64.99 -145.208,-145.251 0,-74.753 56.466,-136.313 129.07,-144.362 3.049,-0.338 4.576,3.613 2.06,5.368 -28.476,19.868 -47.11,52.867 -47.124,90.224 -0.023,60.649 49.33,110.02 109.979,110.02 37.369,0 70.384,-18.638 90.259,-47.123 1.755,-2.516 5.707,-0.989 5.368,2.06 z"
       style="display:inline;fill:#121314"
       id="path1"
       transform="translate(329.04146,270.5452)" />
    <g
       id="g11"
       style="display:inline;fill:#4da3e0;fill-opacity:1"
       transform="translate(-179.11713,-341.309)">
      <circle
         cx="379.11801"
         cy="541.31097"
         r="103.665"
         style="fill:#4da3e0;fill-opacity:1"
         id="circle3" />
      <path
         d="m 410.394,431.663 c -9.941,-2.83 -20.433,-4.346 -31.274,-4.346 -10.841,0 -21.342,1.516 -31.283,4.346 l 26.974,-43.53 c 1.984,-3.197 6.633,-3.197 8.609,0 z"
         style="fill:#4da3e0;fill-opacity:1"
         id="path4" />
      <path
         d="m 323.721,441.668 c -18.549,10.327 -33.911,25.688 -44.246,44.237 l -11.714,-49.86 c -0.864,-3.666 2.425,-6.955 6.091,-6.091 z"
         style="fill:#4da3e0;fill-opacity:1"
         id="path5" />
      <path
         d="m 265.124,541.314 c 0,10.841 1.516,21.333 4.346,31.274 l -43.53,-26.974 c -3.197,-1.975 -3.197,-6.633 0,-8.609 l 43.53,-26.974 c -2.83,9.941 -4.346,20.433 -4.346,31.283 z"
         style="fill:#4da3e0;fill-opacity:1"
         id="path6" />
      <path
         d="m 323.702,640.96 -49.851,11.705 c -3.666,0.864 -6.955,-2.425 -6.091,-6.082 l 11.714,-49.86 c 10.327,18.54 25.688,33.901 44.228,44.237 z"
         style="fill:#4da3e0;fill-opacity:1"
         id="path7" />
      <path
         d="m 410.385,650.965 -26.965,43.52 c -1.975,3.197 -6.624,3.197 -8.609,0 l -26.965,-43.52 c 9.941,2.83 20.433,4.346 31.274,4.346 10.841,0 21.324,-1.516 31.265,-4.346 z"
         style="fill:#4da3e0;fill-opacity:1"
         id="path8" />
      <path
         d="m 478.765,596.739 11.707,49.841 c 0.864,3.657 -2.423,6.945 -6.087,6.087 L 434.544,640.96 c 9.03,-5.028 17.521,-11.375 25.187,-19.041 7.666,-7.666 14.006,-16.15 19.035,-25.18 z"
         style="fill:#4da3e0;fill-opacity:1"
         id="path9" />
      <path
         d="m 532.301,545.614 -43.53,26.965 c 2.83,-9.941 4.346,-20.423 4.346,-31.265 0,-10.842 -1.516,-21.333 -4.346,-31.274 l 43.53,26.965 c 3.188,1.975 3.188,6.633 0,8.609 z"
         style="fill:#4da3e0;fill-opacity:1"
         id="path10" />
      <path
         d="m 490.48,436.046 -11.714,49.86 C 468.43,467.357 453.069,451.996 434.52,441.669 l 49.869,-11.714 c 3.657,-0.864 6.946,2.425 6.091,6.091 z"
         style="fill:#4da3e0;fill-opacity:1"
         id="path11" />
    </g>
  </g>
</svg>
